<svg xmlns="http://www.w3.org/2000/svg" xml:space="preserve" viewBox="0 0 640 480">{{text2Gradient}}{{iconGradient}}<rect width="100%" height="100%" fill="#354860"/><g class="logo-container-box logoContainerBox"><g fill="#ffdb79" class="container_1"><path d="M508.9 214.864c-.1-.4-.2-.8-.2-1.3l.1 2c0-.5 0-.7.1-.7zM492.4 335.264c0 .1-.1.1-.1.2l.4-.4c0-.3 0-.3-.3.2zM503.7 306.064c.2-.5.5-1 .7-1.4-.1 0-.4.6-.7 1.4zM509.9 232.064c0-1.4.1-2.7.1-4.1-.2.5-.3 2-.1 4.1zM503.7 306.064c-.6 1.2-1.1 2.5-1.6 3.9.5-1 1.1-2.7 1.6-3.9zM459.1 380.164l-2.2 2.1c.7-.6 1.4-1.2 2.1-1.9 0-.1.1-.2.1-.2zM412.6 401.564c.1-.1 0-.1-.5.1.1 0 .3 0 .5-.1zM449 389.364s2-1.7 4-3.5c2-1.7 3.9-3.6 3.9-3.6-.7.6-1.4 1.1-1.9 1.5-.6.4-1 .7-1.3.8-.4.3-.5.1.1-.6-1.7 1.8-5 5-4.8 5.4zM179.1 355.064l-.3-.3c.1 0 .2.1.3.3zM178.8 354.664c-1.8-2.2-2.8-3.3-3.3-3.9 1 1.4 2.2 2.7 3.3 3.9zM183 359.064c.3.2.6.5.8.6-.7-.8-.9-.8-.8-.6z" class="st0"/><path d="m179.2 355.164 1.4 2.2c.5.6.9 1.1 1.3 1.5l.9.9c.5.4.7.5.7.5.1-.1-.3-.8-.5-1.2-1-.8-2.3-2.2-3.8-3.9zM484.6 135.664c.3.5.7 1 1 1.6-.3-.5-.6-1-1-1.6zM214.5 389.064l.6.6c.3.1.6.3.7.3.3.1 0 0-1.3-.9zM308.4 53.764c-.5 0-.9 0-1.3.1.5-.1.9-.1 1.3-.1zM135.4 211.564c0 .4-.1.8-.1.9.1-.4.1-.7.1-.9zM485.9 339.264l1-1.6c-.5.7-.8 1.2-1 1.6z" class="st0"/><path d="M516.1 230.064c-.1-1-.2-1.9-.4-2.8-.2-.9-.3-1.7-.5-2.6-.3-1.8-.6-3.7-.9-6.1-.3-2.5-.8-5.5-1.2-9.7.4.2.8 2.6 1.2 5.3.2 1.4.5 2.8.6 4.2.2 1.4.3 2.6.5 3.6 0-.8-.1-2-.3-3.4-.1-1.4-.4-3-.6-4.5-.5-3.1-.8-5.9-.7-6.8-1.3-5.8-2.2-8.4-3.1-10.1-.9-1.7-1.6-2.7-2.6-5.4-.1-.6-.3-1.1-.4-1.6-.1-.5-.2-.8-.3-1.2-.2-.7-.3-1.1-.3-1.4-.1-.6 0-.4.2 0 .4.8 1.2 2.7 1.2 2.5-.8-2.8-3.3-6.9-3.2-9.7-2-4.3-3.4-6.5-1.4.1-.8-2.4-1.9-5.3-2.9-7.8-1.1-2.4-2-4.3-2.4-4.9 1.2 1.7.8.3.1-1.6-.4-1-.8-2.1-1.1-3-.3-.9-.5-1.6-.4-1.8-.8-1.8-1.8-4.1-3-6.7-1.2-2.5-2.7-5.3-4.2-8-3.1-5.4-6.4-10.5-9-13.2l2.1 1.2-2.6-3.8c-1.2-1.9-2.6-3.7-2.6-3.7-1.8-2.9-.4-1.4 1.7 1.3 1.6 2.2 3.6 5.1 4.9 7.2-1.3-2-2.5-3.9-3.7-5.6-.4-.6-.7-1.1-1.1-1.7-.4-.5-.8-1.1-1.2-1.6-.8-1-1.5-2.1-2.3-3.1-.7-1-1.5-2-2.2-3-.8-1-1.6-1.9-2.4-2.9-1.6-1.9-3.2-4-5.1-6.1 2 2.6.5 1.3 1.3 2.7-1.3-1.4-2.9-3-4.5-4.7-1.5-1.7-3-3.5-4.5-4.8-.2-.4-.2-.6.1-.4.3.2 1.1.8 2 1.8-.1-.1-.4-.4-.7-.8-.5-.5-1.2-1.2-1.9-1.8-1.4-1.3-2.8-2.7-2.8-2.7.9 0-1.8-2.7 3.9 2.4l-5.2-4.9c-5.6-5.5.7-.2 2.2 1.1 0 0-.5-.6-1.4-1.4-.8-.9-2-1.9-3.1-2.9l-4.6-4.2c-3.6-2.6 1.6 2-5.1-3.2-1.1-1-2.2-1.9-3.3-2.9-1.2-1-2.4-1.9-3.7-2.9s-2.6-1.9-3.9-2.9-2.7-1.9-4.1-2.8c-1.4-.9-2.8-1.9-4.2-2.8-1.4-.9-2.9-1.7-4.4-2.6-1.5-.9-2.9-1.7-4.3-2.6-1.5-.8-2.9-1.6-4.4-2.4 0 0 2 1.2 3.9 2.4 1 .6 1.9 1.3 2.6 1.8s1.2.8 1.2.8c-1.7-1-2.9-1.7-3.8-2.1-.9-.4-1.5-.6-2-.6-.9-.1-1.3.1-2.5-.3-6.2-3.6-15.2-7.3-20.7-9.8 3.3 1.1 4.4 1.1 3.9.6s-2.5-1.8-5.5-3.1c-3.5-1.2-5.9-2-7.7-2.5-1.8-.4-3-.6-4-.8-1-.1-1.8-.2-2.8-.3-1-.1-2.3-.4-4.3-.8 6.5.3-9.8-2.9-8.3-3.2-9.1-1.9-18.5-3.1-27.9-3.7-9.4-.5-18.9-.4-28.6.2.4.1 5.9.1 2.6.4-1.8.1-3.3.3-4.6.4-1.3.1-2.4.1-3.4.2-1.8 0-3-.1-3.4-.1-2.3.3-4.3.7-6.1 1-1.8.3-3.4.6-4.8 1-2.8.7-4.7 1.3-6.2 1.8 3.9-.9 4.3-.8 3.6-.3-2.2.5-3.7.7-4.9.9-1.2.2-2 .3-2.7.5-1.6.3-3.1.5-7.2 1.9-2.4-.2 9.2-2.6 8.3-3.1-7.9 1.8-12.6 3.5-18.1 5.6-.7 0 .6-.5 1.5-.8.9-.3 1.5-.5-.7 0-2.9 1.1-6 2.2-9.1 3.5-3 1.3-6.1 2.6-9 4-2.9 1.5-5.7 2.8-8.3 4.2-2.5 1.4-4.9 2.7-6.9 3.9 0 0-.6.2-1.3.3l-1.2.4c-2.6 1.5-4.7 2.8-6.4 4-1.8 1.1-3.1 2.2-4.1 3-2.8 1.6-.8.1 1.7-1.7-3.4 2.2-7.1 4.7-10.2 7.2-1.6 1.2-3.1 2.4-4.4 3.5-1.3 1.1-2.4 2.1-3.3 2.8.3-.7 3.5-3 4.4-3.9-8.1 6-16.7 15.4-21.7 19.6.5-.7 1.2-1.4 1.8-2l-3.9 3.9c-1.2 1.4-2.4 2.7-3.6 4-1.2 1.4-2.4 2.6-3.5 4l-3.3 4.2c-4.4 5.6-8.5 11.6-12.8 18.4-8.1 12.4-1.8 4.5-8.7 17.2-.7-.3-2.9 4.2-5.1 9.4-1 2.7-2.1 5.5-3 8.1-.8 2.6-1.6 4.8-2.2 6.3l.9-1.8c-.4 1.7-1.1 3.6-1.6 5.5s-1.2 3.9-1.8 5.8c-.7 1.9-1.2 3.7-1.7 5.4s-1 3.1-1.4 4.3c-.7 2.6-1.2 5.6-1.8 8.8-.3 1.6-.5 3.2-.8 4.9-.2 1.7-.5 3.3-.7 5-.4 3.4-.6 6.7-.8 9.9-.1 3.2-.1 6.3-.1 9l-.2-2.2v11.7c0 1.8.1 3.6.2 5.5.1 1 .1 1.9.2 3 .1 1 .2 2.1.3 3.2-.1-.2-.6-3.5-.4-.1 1.4 21.5 6.9 43 15.7 62.9 4.4 9.9 9.8 19.4 15.7 28.5 2.9 4.6 6.2 8.8 9.4 13.2 1.7 2.1 3.4 4.2 5.1 6.2.8 1.1 1.7 2 2.6 3l2.7 3c7 7.5 14.6 14.9 23.1 21.6s17.8 12.8 27.6 18.2c9.9 5.3 20.3 9.9 31.2 13.5 10.9 3.6 22.1 6.2 33.5 7.8 22.8 3.2 46.1 2.3 67.8-2.4 10.9-2.4 21.3-5.7 31.2-9.7 1.2-.5 2.5-1 3.7-1.5s2.4-1 3.6-1.6c2.4-1.1 4.7-2.3 7.1-3.4 2.3-1.2 4.6-2.5 6.8-3.7l1.7-.9 1.6-1c1.1-.7 2.2-1.3 3.2-2 0 0 .5-.4 1.3-1.1s1.9-1.6 3.2-2.9c2.5-2.5 5.9-5.7 8.7-9.1 1.4-1.7 2.9-3.3 4-4.9 1.2-1.6 2.1-3.1 2.9-4.3 2.4-2.6 2.7-4.1 1.2-3.8-1.3.8 0-.5 1-1.6s1.7-2-.8.1l-4.3 4.5c.5-.8-1.7.5-2.8 1 .4-.2.7-.5 1-.6.1-.2-.5.1-1 .4.3-.4.8-.9 1.5-1.6-1 .9-1.6 1.4-1.8 1.7-.1 0-.1.1-.2.1-.9.9-.6.8 0 .4-.9 1.6 6.9-4.1 1.9 1.1-1.1 1.4-5.7 4.6-8 6.3 2.6-1.8 2.7-1.7 1.8-.8-.4.4-1 1-1.7 1.6-.7.6-1.4 1.1-1.9 1.5-1.7 1-3.9 2.3-5.8 3.5-2 1.1-3.8 2.1-4.7 2.3-.2.2-1 .7-1.9 1.3l-1.5.9c-.5.3-1 .5-1.5.8l-.3-.1c-4 2.4 1.5-.5.6.2-1.5.8-3.5 1.7-5.7 2.8-1.1.5-2.3 1-3.5 1.5s-2.5 1.1-3.7 1.7c2.5-1.2 4.8-2.3 6.8-3.5s3.8-2.3 5.5-3.3c-4.5 2.1-4.3 1.7-2.7.4.8-.6 1.9-1.4 2.9-2.1.4-.3.7-.5 1-.8 2.7-1.5 4.6-2.8 4.9-3.2.2 0 2.1-1 .6 0 1.3-.7 2.4-1.5 3.3-2.1.7-.5 1.3-.9 1.9-1.4-.4.3-1.1.7-1.6 1 1.1-.9 3.4-2.5 2.7-2.4-1.1.8-1.2.9-2.7 1.9.5-.6 4.5-3.3 5.6-3.8.6-.3.1.2-.5.7-.5.5-1 .9 0 .3 0 0 .4-.3 1-.8s1.3-1.1 2.1-1.8c.7-.6 1.3-1.1 1.9-1.6-1.1.8-2.2 1.5-1.9 1.1l-2.4 1.9v-.3c-2.1 1.6-4 2.7-5.8 3.9-.9.6-1.8 1.2-2.8 1.8-1 .6-2.1 1.3-3.2 2l1.9-.8c-1.4.8-2.7 1.7-4 2.5-.7.4-1.3.8-2 1.2-.7.3-1.3.6-2 .9 1.2-.8.3-.4.2-.5-.6.4-1.3.8-2.1 1.2l.5-.4c-.8.6-2.2 1.3-3.6 2-.9.5-1.9.9-2.7 1.3-.8.3-1.5.6-1.8.8l.4-.3c-2.2.9-1.9.9-1.5.8-.5.3-1 .5-1.5.8-1.1.4-.5-.2-2.4.5-1.5.6-3.3 1.4-5.4 2.2.5-.3 1.1-.7 2-1.2-2.8.8-4.3 1.5-5.6 2.1-1.1.6-2 1.1-3.1 1.7-1.7.6-3.4 1.1-4.8 1.5-4 1.3-8.4 2.8-12.1 3.8-3.6.9.2-.5-3.5.6.3-.3-.2-.3-.6-.3-1.1.3-6.5 1.3-3.7 1-2.7.5-5.6 1.1-8.5 1.4-2.5.3-5 .8-7.5 1h-.3c1.1-.2 1.2-.4-.1-.4-.4.1-.9.2-1.4.3-.3 0-.4-.1-.4-.2 3.4-.6-3.1.2-2.5-.2-.8 0-1.6.1-2.3.2-.8.1-1.4.1-2.2.2-1.5.1-3.2.3-5.9.4-.1.2 1.8.2-.7.4h.4c1.4 0 2.5 0 1.5-.2 1-.2 3.4-.4 5.8-.5 1.2 0 2.4-.1 3.4-.2.7-.1 1.3-.1 1.8-.1-1.9.3-1.4.4-.5.4-.7.1-1.4.2-2.2.3-2.1.3-4.5.3-6.9.4.1.3 1.4.2 1.3.4-.1 0-.2.1-.2.1-.7.1-1.8.3-2.9.3-.4-.1-.5-.3-1.1-.4-.6-.2-1.6-.3-3.8-.3.1 0 .2-.1.4-.1-2.3 0-3.2-.4-4.1-.4.7 0 1.7-.1 2.4-.1-1.5-.1-2.6 0-3.7 0s-2.2 0-3.9-.1c-.9-.5 5.4.3 6.6-.1l-2.4-.4c-5.1-.3-1.4.3-6.7-.1l.7-.1h-1.7c-.9 0-1.7-.1-1.7-.1-.1.1.1.3.6.4s1.4.2 2.8.3c-1 .2-1.6.2-2.6.1-.9-.1-2.2-.3-4.5-.5-1.5.1 1.9.1 2 .4.4.3-2.7 0-5-.2-1.9-.2-2.3-.4-2.5-.5-.2-.1-.1-.2-.8-.4.4.1 1.2.2 2 .3.7 0 1.4.1 1.2.2 4.6.2-1.9-.7 1.3-.6-2.1-.3-2.9-.3-3.6-.3-.4 0-.8 0-1.4-.1.5.1-.7.1 0 .4-3-.1-4-.4-4.9-.7-.9-.3-1.7-.8-4.6-1.3 1.1.6-7.8-.9-3.7.4-1.4-.2-3.2-.5-4.6-.9 1.6.1-2.5-.9.3-.5l-2.1-.5 3.2.4c-2.3-.8-6-1.9-7.2-2.4-3-.8.8.5-2.6-.4 1.3.2-.8-.6-2.3-1 3 1-.1.4-2-.1-3-.9-5.2-2.1-4.8-2l1.8.4c-.8-.2-.4-.3-2.1-.8-.7 0-2.2-.3-3-.3-.5-.2-.9-.3-1.3-.5s-.8-.3-1.1-.5c-.6-.3-1.1-.6-1.4-.7 0 0 .7.2 1.5.5.3.1.7.2 1 .3.2 0 .4 0 .4.1-3.8-1.5-.7-.8-4.6-2.3l-1.1-.2c-.5-.3-.8-.4-.7-.5-.9-.2-2.6-1-3.5-1.3l-.2-.3c-1.7-.7-3.9-1.3-5.7-2.5 1.4 1.1 2 1 4.7 2.4 1.6 1-2.9-1-3.5-1.3.2-.1-.9-.6-2.2-1.2-1.3-.7-2.8-1.4-3.8-1.9-1-.7-2-1.3-2.6-1.7l-.9-.2c-.4-.9-3.8-2.1-5.8-3.5 1.2.5 1.1.2-.3-.7.9.8 0 .4-1-.1-1.1-.5-2.2-1.2-2-.9-3.6-2.5 1.1.2.2-.8-2-.9-4-2.8-5.4-3.3 2.6 1.8-.6-.1-1.2-.3-2.5-1.8-.8-.6-.9-.8.1 0 .2.1.3.1.8.4 1.3.7 1.3.7l-.6-.6c-.3-.2-.7-.3-1.1-.5-.1 0-.2-.1-.2-.1-.1-.1-.2-.2-.4-.3-1.3-1-3.1-1.9-1.6-.6 0 0-.1 0-.1-.1-.6-.4-1.2-.8-1.8-1.3l-1.1-1.7c-2.5-2-4.6-2.8-5.6-4.3-1.6-1.8-.1-.9.8-.6.4.2.7.2.2-.2-.2-.2-.6-.6-1.2-1.1-.3-.3-.7-.6-1.1-.9-.4-.4-.9-.8-1.4-1.3-2.3-2.1-4-3.6-5.4-4.8-1.3-1.2-2.4-2-3.4-2.8-1.9-1.5-3.6-2.6-6.3-5.9.2.4.7 1 1.3 1.7.3.4.7.8 1.1 1.2l1.3 1.3c-1.1-.8-.9-.4-.8-.1-1.5-1.5-2.9-3.1-4.4-4.8-.6-.7-1.3-1.5-2-2.3-2.2-2.7-4.7-5.7-6.8-8.4 1.4 1.2-.9-2.6.6-1-2.1-2.7-4.1-5.2-5.3-6.2 3.9 5.8 1.8 3.2-.6.2-1.5-2.1-3.2-4.3-3.2-4-.1-.2-.2-.3-.3-.5-.4-.8-.9-1.6-1.5-2.5-.5-.9-1.1-2-1.7-3.1.9 1.6.3.8-.4-.1-.2-.4-.4-.9-.6-1.3-.6-1.2-1.1-2.4-1.7-3.6-.5-1.2-1.1-2.5-1.8-4.1.2.1 1.7 2.9 2.8 4.4.5.8.9 1.3.9 1 0-.1-.2-.4-.4-.9-.3-.5-.7-1.3-1.2-2.4-4.7-7.5-2-1.6-3.2-2.5-.5-.8-1-1.6-1.3-2.3-.2-.5-.2-.6-.2-.8-1.1-2.5-1.4-2.5-1.9-3.4l-.6-1.7-.3-.3c-.6-1.3-1.3-2.7-1.7-3.8-.4-1.1-.6-1.9-.4-1.8-.5-.9-.9-1.9-.5-.6-.2-.8-.7-1.9-1.2-3.2.5.7.4.5 2 3.2-1.4-3.5-2.1-5.2-2.3-6s0-.6.2-.4c.4.5 1.1 1.4-.6-4.1-.7-1.7-.9-1.9-1.3-2.5-.2-.3-.4-.6-.6-1.2-.2-.6-.5-1.5-.9-3 .3 3.5-.1 3.2 3.1 12.2-.2-.2-.4-.5-.5-.9-.1-.1-.1-.3-.2-.4-1-2.7-2-5.6-2.8-7.9.2.7.4 1.2.4 1.5v-.1c-.3-.8-.5-1.7-.7-2.6-.2-.9-.5-1.8-.7-2.7-.2-.9-.5-1.7-.8-2.5-.4-1.7-.9-3.4-1.3-5.2-.5-2-1.1-4-1.5-6.1-.4-2.1-.8-4.2-1.2-6.2-.3-1.6-.3-1.1-.5-1.9-.2-2.6-.6-5.5-1-8.4-.3-2.9-.7-5.9-.8-8.7-.1 1.3-.6-.5-.7-3.6-.4-3.3.4-1.3.4-4.4-.2-1.5-.2-4.4-.2-5.6l.1.1c-.1-.9-.2-2.1-.2-3.4 0-1.3.1-2.6.2-3.7v.3c.1-1.8.4-3.9.5-5.8-.2-.8.4-5.5.3-6.6 0-.3 0 .1.1-.4l-.2-.2s.1-.2.1-.6c0-.4.1-.8.2-1.3.1-1 .3-1.9.3-1.9 0 .8.1 1 0 2.1.8-4 0-1.4.2-3.5.2-2.9.4-2.7.7-4 0 1.1-.3 2-.4 2.7 0 1.6.4-1.7.5-1.7.2-.6-.2-.9.3-2.9.4-1.7 1.1-5.9 1.3-5.3.1-.8.2-1.6.4-2.4.2-.8.3-1.5.4-2.1-.2.7-.5 1.7-.7 2.6-.2.8-.4 1.6-.5 1.7.2-.7.3-1.7.5-2.5.2-.9.4-1.6.5-1.8l-.2 1.1c.2-.9 1.1-4.3.6-3.2l.9-2.3c0-1.1.8-3.7 1.4-5.9.3 0 0 1.8 1.3-2.2l.4-1.8c.3-.9.5-1.8.5-1.8.6-1.8.9-2.2.9-1.9 2.3-6.2 1.7-6.6 3.8-11.3-.5 1.7-.1 1 .5-.4-.1.1-.1.3-.2.5-.4.4.7-2 1.1-3 2.5-3.9 6.6-13.8 10.9-19.9-.6.3 1.5-2.9 2.3-4.2.1.6 2.3-3.5 3.6-5.1l-.9.7c.7-1 1.3-1.8 1.8-2.6s1-1.5 1.4-2.2c.9-1.4 1.7-2.6 2.7-3.6.8-1 .8-.8.4-.2-.4.6-1 1.6-1.3 2 .6-.6 1.2-1.5 1.9-2.3l2.1-2.7c1.4-1.8 2.7-3.6 3.8-4.5.1-.3-.8.3 1.2-2.1 1.8-1.7 5.2-5.2 5-4.8 1.3-1.5 1.6-1.9 3.3-3.4-.1.2-.7.9-1.2 1.4 1.2-1.2 2.3-2.4 3.4-3.5 1-1.1 2.1-2.1 3.2-3.2.8-.5 2.3-1.9 4-3.4 1.8-1.5 3.8-3.1 5.4-4.3 1.4-1.8 5.2-3.8 5.2-4.4-.1.1.4-.2.6-.3 1.1-1 1.9-2 3.5-3.1 0 0-.1.2-.2.3-.1.1-.2.3-.2.3-.2.5 3.6-2.4 4.8-3-.6.2 2.1-1.4 2.1-1.6 0 0 .4-.4.9-.7.4-.3.9-.6.9-.6 3.1-1.9.3-.3 4.1-2.6 2.1-1.3.9-.1.1.3 1.8-.9 3.5-1.9 5.3-2.9-.4.2-.5.2 0-.1.1 0 .4-.2.9-.4.6-.3 1.2-.7 1.8-1l-.1.1c.1-.1.3-.1.4-.2-.1.1-.3.2-.4.2 0 .1.5-.2 1.2-.6.4-.2.8-.4 1.1-.5l-.4.5c1.4-.8 5.2-2.7 5-2.8.8-.3 1.6-.7 2.5-1.1.9-.4 1.8-.8 2.8-1.2 2-.8 4-1.6 5.9-2.4 1-.4 1.9-.8 2.8-1.1.9-.3 1.7-.6 2.5-.9.9-.4 1.7-.6 2.3-.9-.8.3-.8.4-.1.1 1.9-.8 4.2-1.6 4.4-1.5 1.9-.6 1.9-.3 4.9-1.2 0 0 .1-.2-.1-.2 1.2-.3 2.4-.6 3.8-.9 1.5-.4 3-.8 4.6-1.2 1.6-.5 3.2-.8 4.8-1.1 1.5-.4 3-.6 4.4-.8-.5.1-1 .3-1.4.5 1-.2 2-.5 3-.6l3.6-.6c2.3-.4 4.6-.9 6.9-1.2-.4.1-.3.2-1.4.4 1.7-.1 3.5-.3 5.1-.5 1.5-.2 2.9-.4 3.7-.5-2.3 0-.1.1-1.7.2-1.2 0-.8-.1.3-.3 1-.2 2.7-.3 3.8-.3h.1c1.7-.1 2.6-.1 3.5-.2.4 0 .9-.1 1.4-.1h2c2 .1-1.8 0-1 .2.8.4 7.7.2 8.4.3.8-.1 1.9-.1 1.8-.2 2.6.1 1.2.3 3 .4 0 0 .5-.1 1.2-.1.8 0 1.7-.1 2.7-.1h3.5c-.3.1 2.4.6.1.5 2.7.3 4.9.3 6.8.5 1.9.1 3.6.2 5.3.3 1.7.3 7 1.3 8.8 1.6.8.4-1.6-.3-2-.2l2.7.8c-3.6-.7.4.4-1.6.2 1.5.2 3.9.8 6.5 1.5 1.3.3 2.6.7 3.9 1 1.2.4 2.4.8 3.5 1.1-2.8-1.3 5.8 1.5 5.7 1.1 5 1.7 2.4 1.2 4.2 1.9 1.3.4 2.6.8 3.8 1.3l3.6 1.5c1.2.4 2.3.9 3.5 1.4 1.2.4 2.3 1 3.4 1.5 0 0 .1.1-.2 0 1.1.5 2.2 1 3.5 1.6.6.3 1.2.6 1.9.9.7.3 1.3.7 2 1 1.3.6 2.7 1.3 3.9 1.9l3.4 1.7c-.2 0 .1.2-.9-.3 4.1 2.6 1 .1 5.7 3.1l-1-.4c3.1 1.5 5.6 3.7 9.1 5.6.1.1-.7-.3-1.2-.6.7.5 1.5 1 2.3 1.5s1.5 1.1 2.3 1.6c1.5 1.1 3 2.1 4.3 2.9.3.4-.2.2-1.4-.6 2.8 2.2 3.3 2 5.8 4.2.6.5 1.6 1.5 1.6 1.6 1.6.9 5 4.1 6.4 5.2.2.4 1.2 1.3 2.6 2.8 6.4 6.3 12.6 13 18.2 20.1 1.4 1.7 2.7 3.6 4.1 5.4l2 2.7 1.9 2.8c1.2 1.9 2.5 3.7 3.7 5.6 1.2 1.9 2.3 3.8 3.5 5.7 1.2 2.8-2.3-3.5-1.6-1.7.2-.3 1.7 2.5 4.3 7.3l.1.2c1.1 2.1 1.6 3.3 2.7 5.5v-.1c1.3 2.3 2 5.5 3 6.6l.5 2c1.3 2.3 1.5 3.9 2.9 6.8l-.2-.3c1.2 4.2 3.4 8.4 3.5 10.1.6 1.8 1.2 3.7 1.7 5.2s.9 2.7 1.1 3c.1.9-.2.4-.4-.1.8 3.3 1.8 6.8 2.4 10.3.3 1.8.7 3.5 1 5.3.3 1.8.5 3.5.8 5.3.6 3.5.8 7 1.2 10.4.2 1.7.3 3.4.4 5 .1 1.7.2 3.3.3 4.8 0 .6-.1-.1-.2-.5.1 1 .1 1.9.1 2.9V246.064c0 .5-.1.9-.1 1.4-.1 1.9-.2 3.6-.3 5.3v4.6l.1 2.1c-.3 1.8-.5 1.6-.7 3 .1 1.5-.9 7-.8 7.9-.3.8-.1-.3-.2-.3-.2.9-.3 1.8-.4 2.7-.1.9-.3 1.9-.4 2.8-.3 1.8-.5 3.7-.9 5.3l.1-1.1c-2.1 8.6-5.1 18.2-8.6 27.2s-7.6 17.3-10.8 23.8c-2 3.4-1.2 1.3-2.1 2.8-3.4 6.6-8.3 13.3-13.1 19.7-1.3 1.5-2.6 3.1-3.8 4.6-.7.8-1.3 1.5-1.9 2.3-.6.8-1.3 1.5-1.9 2.2-1.3 1.4-2.5 2.8-3.7 4.2-1.2 1.3-2.4 2.6-3.5 3.9-3.6 3.9-6.2 6.3-7.8 8.5-1.4 1.7-1.9 2.4-1.9 2.4 9.7-8.6 18.1-17.5 25.7-27.1 7.6-9.6 14.3-19.9 20.1-31.3.9-2 1.9-4.1 2.9-6.3s1.9-4.5 2.8-6.8c1-2.2 1.7-4.5 2.5-6.7.7-2.1 1.5-4.2 2.1-6.1l1.8-6c.5-2 1-4.1 1.5-6.1l.8-3.1.6-3.1c.4-2.1.8-4.1 1.2-6.2.6-4.2 1.3-8.3 1.7-12.5.6-4.2.8-8.4 1-12.6.6-16.9-1-34-5.3-50.6.3 1.8-.3 0-.8-1.7v-.4s-.2-.7-.4-1.3c-.3-.7-.5-1.3-.5-1.3-.7-2.4-.1-1.5.5.6-3.7-13.1-8.3-24.5-14.3-36.3-.3-.3-1.1-1.8-1.9-3.3s-1.6-2.9-1.9-3c-.3-.6.1-.1.3.2-4.8-7.9-5.2-8.3-9.6-15.5l-3.9-5.4c-.7-.9-1.4-1.7-2.1-2.6l-2.1-2.6c-2.7-3.5-5.8-6.7-8.7-10l-4.7-4.7-2.3-2.3-2.5-2.2c-1.6-1.5-3.2-3-4.9-4.4l-5.1-4.2c-6.9-5.4-14.1-10.5-21.7-14.8l-2.8-1.7-2.9-1.5c-2-1-3.9-2.1-5.9-3-2-.9-4-1.9-6-2.8-1-.5-2-.9-3-1.3l-3.1-1.3c-32.4-13-67.9-16.4-102.9-9.9.2-.3-2-.1-4.1.2-3.4.4-6.9 1.1-1.8-.6 1.9-.8 5.4-1.6 9.3-2.4 2-.3 4-.6 6.1-.9 1-.1 2-.3 3-.4 1-.1 1.9-.2 2.8-.3-3.1-.1-3-.4-1.1-.8.9-.2 2.3-.4 3.9-.6.8-.1 1.7-.2 2.6-.4.4 0 .9-.1 1.4-.1-1.6.1-2.5.1-3.3.1-.9 0-1.3-.1-1.7-.1s-.9-.1-2 0-2.8.2-5.6.8l-.3-.6c2.4-.4 5.1-.5 7.8-.7 1.3-.1 2.7-.2 4-.3 1.3 0 2.6-.1 3.8-.1-1 .2.1.3-1.5.5 0 0 .9-.1 2.3-.1 1.4-.1 3.2-.2 5-.3 3.7-.1 7.3-.1 7.3-.1l-1.5.4c8.4.2 18.7 1.4 24.4 2.2-1.7-.3-3.2-.6-4-.8-.9-.2-.7-.5 1.6-.2 2.6.1 7.5.4 11.5 1.4 2.1.9 17.2 4.7 7.4 3 3.1.7 5.2 1.1 6.6 1.4 1.5.4 2.4.6 3.4.8 1.8.4 3.4.7 8.2 2.2-.7-.2-1.7-.6-2.6-.9-1-.3-2-.6-2.7-.8-.7-.2-1.2-.3-1.2-.3-.8-.8 6 .2-1.4-2.4 4.5 1.1 5.4 1.1 6.7 1.2.6.1 1.4.2 2.7.5.7.2 1.5.4 2.5.7 1 .3 2.2.7 3.7 1.3 4.6 2.3-1.8.4-8.4-1.7 3.3 1.2 6.2 2.5 9.7 3.5 1.1.7-.5.3-2.3-.3-1.9-.6-4-1.1-3.9-1 3 1.1 3 1 2.9.9 0-.1-.1-.3 2.7.8 2.5.8 4.1 1.5 5.3 2 1.2.5 1.8 1 2.5 1.5s1.3.9 2.4 1.5c.5.3 1.2.6 2 1s1.7.8 2.9 1.3c-1-.5-2.3-1.2-3.1-1.6-.8-.5-1-.7.2-.3.8.4 1.5.7 2.1 1 .6.3 1.2.6 1.7.9 1 .5 1.8.9 2.5 1.2 1.3.6 2.1 1 2.8 1.2 1.4.5 2.3.8 6.6 3.2 2.2 1.8 2.6 2.5 3.4 3.5s2 2.1 5.6 4.6l-4.1-2.7c1.3 1.1 2.8 2.3 4.3 3.4 1.4 1.2 2.9 2.3 4.3 3.4 1 .6 1.9 1.3 2.8 1.9.9.6 1.8 1.3 2.7 2 1.8 1.3 3.5 2.6 5.3 3.9 1.7 1.4 3.3 2.7 5 4l2.5 2 2.4 2.1c1.6 1.4 3.2 2.8 4.8 4.3 1.5 1.5 3.1 3 4.6 4.6l2.4 2.4c.7.8 1.5 1.7 2.3 2.5.7.8 1.5 1.6 2.2 2.5l-2-2.4c-1.3-2 3.9 4.2 4.1 3.9 0 0 .1.2.4.6.2.3.5.8.8 1.3.6.9 1.1 1.8 1.1 1.8.6.3-.7-1.7-2-3.6-1.3-1.8-2.5-3.5-1.5-2.7.3.5 1.2 1.6 1.7 2.2l-2.4-3.2c5.6 7 10.5 12.4 13.4 18.6-2.4-3.6-3.9-5.5-4.7-6.6-.9-1-1.3-1.1-1.7-1.2-.4-.1-.7-.2-1.7-1.1-.5-.5-1.1-1.1-1.9-2.1-.4-.5-.9-1.1-1.4-1.7-.3-.3-.5-.7-.8-1-.3-.4-.6-.7-1-1.1.7.8 1.3 1.5 1.7 2.1.4.5.6.9.8 1.2.3.5.2.5-.1.3-.5-.4-1.7-1.5-1.6-1 2.7 3.9 1.7 1.6 4.7 6-.4.1-7.5-8.8-4.7-4.5.9.1 3.6 3.9 5.3 5.5 2 3.4-.4.2.4 1.7 1.2 1.8 2.2 2.7 3.2 4.4l-1.2-1c1.4 2.3 2.2 3.7 2.7 4.5.5.9.9 1.2 1.2 1.6s.7.8 1.4 1.8 1.7 2.5 3.1 5.3c.3 0 0-.8-.7-2.2-.7-1.4-2-3.3-3.3-5.5-.2-1.4 2.2 1.8 4.6 5.3 2.3 3.6 4.7 7.4 5 6.6 5.2 10.7-1.8-2.6 2.2 6.7.8 2.7-.2 1.1-1.6-1.4-.7-1.3-1.5-2.7-2.2-4.1-.8-1.3-1.5-2.4-1.9-2.9 0 0 .3.6.7 1.5.2.4.4 1 .7 1.5.2.6.5 1.2.7 1.8 1 2.4 1.9 4.8 1.9 4.8-1.2-1.4-2.4-3.5-3.5-5.5-1.2-1.9-2.3-3.7-3.1-4.3 1.8 3.4 2.6 4.9 3.4 6.4s1.7 3 3.5 6.4c-4.5-11.8 2.9 4.7.9-2.2.6 1.3.8 2.3 1.1 3.1.2.8.4 1.3.6 2 .2.6.5 1.3.9 2.4.4 1 1 2.4 1.6 4.4-1-2.5-1.3-2.5-1.5-2.7-.3-.2-.6-.6-2-3.9 2.2 5.3 2.9 7.3 3.7 9.2.4 1 .8 2 1.3 3.4s1.1 3.3 1.9 6c1.7 3.2-2.4-11.5 2.1 1.7.4 1.4.5 2 .4 2.1-.1 0-.3-.5-.5-1.4 2.1 9.7.4-2.2 2.3 3.7 1.1 4.2 1.2 5.8.6 4.1.5 1.6.8 2.5 1 3.1.2.6.4.9.5 1.1.3.4.5.6 1 2.7l-.3-2c.6 1.8.7-3.5 2.5 5.9 1 6.9.3 4.8 0 5 .3 1.3.5 2.6.6 3.8.1 1.2.2 2.3.3 3.4.1 2.2.2 4.1.2 6 .1-.4.3 0 .4 1.7.6 9.1-.3 5.3-.4 8.7-.2 6.5.1 6.1.5 5.9.2-.1.4-.2.6.7.2.9.2 2.7 0 6.3 0 0 .1-1.1.2-2.6 0-.8.1-1.7.2-2.7 0-1 0-2.1.1-3.1 0-2.1.1-4.2.1-5.8 0-1.6-.1-2.6-.1-2.6.4.7 1 1 .8-2.6-.3-.2-.6-1.7-.9-4-.4-2.2-.8-5.1-1-8 .2-.9.8 2.9 1.2 5.7.2 1.4.4 2.6.5 2.8.1.2.2-.5.2-2.9.1.9.1 1.8.2 2.8.1 1 .1 2 .2 3.1.1 2.2.3 4.4.3 6.5-.7-4.3-.2 13.6-.9 6.3.1 2.3-.1 4.4-.2 6.3-.1 1.9-.2 3.6-.3 5.1-.3 3.1-.6 5.7-.9 8.3-.7 5.1-1.3 10-2.8 18.4-.1-.8.2-3.9.7-7.9.2-2 .4-4.2.6-6.5.1-1.1.3-2.3.4-3.4.1-1.1.2-2.3.4-3.4l.5-.7c.6-11-1.2 8.5-1.8 6.4-.3 3.4-.6 7-1.4 10.6-.4 1.8-.7 3.7-1.1 5.6-.5 1.9-1 3.7-1.5 5.7-.3 1-.5 1.9-.8 2.9s-.6 1.9-.9 2.9c-.6 1.9-1.2 3.9-1.9 5.8s-1.4 3.9-2.1 5.8l-1 2.9c-.3 1-.7 1.9-1.1 2.9 1.4-2.6.4.5.4 1.3.6-1.6 1-2.7 1.4-3.5.3-.9.5-1.5.7-2 .4-1.1.8-2 1.8-4.2.1 1-1.3 4.8-1.8 6.9-.1 1.9 1.7-4.8 2.8-6.9-.9 3.1-1.3 4.5-1.6 5.6-.3 1.1-.4 1.9-1 3.7-1.7 3.1-1.8 2.6-3.2 4.9-3.2 7.2-4.7 10.4-5.9 13.3-.6 1.4-1.2 2.8-2.1 4.5-.9 1.7-2 3.6-3.7 6.4 3.3-5.4-1 .9.9-2.4l-1.2 2c2.5-4.9 5.9-11.5 8.2-16.9 1.1-2.7 2.1-5 2.6-6.6.5-1.6.5-2.5.1-2.2-.8 2.1-1.6 4-2.4 5.9-.8 1.9-1.5 3.7-2.3 5.6-1.8 3.7-3.5 7.7-6.3 12.4v-.5c-4.1 6.8.3.1-.4 1.8-.5 1-1 1.9-1.5 2.7s-1 1.5-1.5 2.1c-.9 1.3-1.8 2.3-2.6 3.3-1.5 2-3 3.6-4.4 6.3 0 0 1.4-1.8 2.7-3.6.7-.9 1.3-1.9 1.8-2.5.5-.7.8-1.2.8-1.2-3.3 6 1.2-1.6 1 .2-.8 1.3-1.6 2.8-2.6 4.2-1 1.5-2.1 3-3.2 4.6-.6.8-1.2 1.6-1.8 2.5-.6.8-1.3 1.6-1.9 2.5-1.3 1.7-2.7 3.4-4.1 5.1l-4.5 5.1c-.8.9-1.5 1.7-2.3 2.6l-2.4 2.5c-1.6 1.6-3.2 3.3-4.8 4.9-1.6 1.6-3.2 3.1-4.8 4.6 4-3 5.1-3.9 9.7-8.6-1.3 2.9-3.3 4.7-.3 3.1 0 0 1.4-1.4 2.9-2.8l2-2c.5-.6.8-.9.8-.9l.8.6c-.4.4-.7.8-1.1 1.2-.4.4-.8.8-1.2 1.1-.8.7-1.5 1.5-2.3 2.1-.1.3-.7 1-1.5 1.9-.9.9-1.9 2-3.1 2.9-2.3 2-4.5 3.9-4.5 4.3l5-4.7c2.9-1.9-3.2 3.5-6.7 6.9 1.9-1.3 4.7-3.8 7.9-6.9 3-3.2 6.6-6.8 9.8-10.6-.7.3 5.2-7.5-1.2-.5-.1-.2.7-1.4 1.9-2.9.6-.8 1.3-1.5 1.9-2.4.6-.8 1.3-1.7 1.9-2.4-1.1 1.6 5-4.5.8 1.3 2-2.7 2.6-3.5 3.2-4.2.7-.8 1.5-1.7 4.2-5.6-.1.3.4-.4 1.3-1.5.4-.6 1-1.3 1.5-2.1s1.1-1.6 1.7-2.5c1.2-1.7 2.4-3.4 3.3-4.6.9-1.2 1.5-1.9 1.5-1.6.6-1.4.3-1.5.5-2.5.1-.5.4-1.2.9-2.3.5-1.2 1.5-2.8 2.7-5.2-.8 1.1-2.9 4.1-4.2 6.1-1.4 1.9-2 2.7-.3-1l-2.3 4.8c-4.4 6.1.6-2.1-5.1 6 1.6-2.4 4.6-7.4 5.6-8.4-1.2.7.5-2.5 2.4-6 1.8-3.6 3.7-7.5 3.4-7.9.3-.4.7-.9 1-1.5.3-.6.7-1.2 1-1.9.7-1.5 1.6-3.3 2.7-5.8 0 .8 1.6-1.7.1 2.1-1.6 3.1-2.4 5.5-4.5 8.7.5-.3 1.2-1.2 2.1-2.6.7-1.4 1.6-3.1 2.5-5.1.4-1 .9-2 1.4-3.1.5-1.1.9-2.2 1.3-3.3.9-2.2 1.8-4.5 2.7-6.5-.5 1.1-.8 1.4-.1-1 .5-1.3 1.1-2.9 1.8-4.7.3-.9.7-1.7 1-2.6.3-.9.6-1.7.9-2.5 1.1-3.1 1.9-5.1 1.7-3.3 0 0 .1-.4.3-1.1s.5-1.8.8-3c.6-2.5 1.5-5.9 2.2-9.3.3-1.7.6-3.4 1-5 .3-1.6.6-3.1.8-4.4.4-2.6.6-4.3.6-4.3.3-.1-.4 3.9-.6 5.6 0 0 .6-3.8 1.1-7.7.3-1.9.4-3.8.6-5.3.1-1.4.2-2.4.2-2.4.8-3.6-.1 5.3.1 6.9 0 0 .1-.7.2-1.7s.2-2.4.4-3.8c.1-1.4.3-2.8.4-3.8.1-.5.1-1 .1-1.3v-.5l.2.8c.1.4.1.8.1.8 0-1.4.1-5.3.3-9.3.1-4 .2-8 .5-9.6-.2-3.1-.5-5.4-.7-7.3zM395 407.264c.3-.1.5-.1-.7.5.2-.2.4-.3.7-.5zm-3.4 2.4c.1 0 .2-.1.3-.1l.3.1c3.3-1.7 4-2.4 5.2-3.2 2.6-1.1 2.8-1.4 5.4-2.6-1.2.7-2.3 1.4-3.3 2-1 .6-1.9 1.2-2.7 1.7l3-1.5c1-.5 1.9-1.1 2.8-1.6 1-.6 2-1.1 2.9-1.6-.1.1-.2.1-.3.2-1.3.8-2.4 1.5-3.5 2.2-.5.3-1.1.7-1.6 1s-1.1.6-1.7 1c-1.2.6-2.4 1.3-3.8 2.1-3.1 1.3-3.7 1-3 .3zm-12.1 5.2c.1-.1.2-.1.3-.2h.1c.1 0 .3-.1.4-.1-.3 0-.6.1-.8.3zm3.1-2.8-3.3 1.2c1.2-.5 2.6-1 3.3-1.2zm-17.3 6.8.3.2c2.7-.8 5.8-1.7 9.2-2.7.6-.2 1.2-.4 1.9-.6-.4.4-.9.8-1.8 1.3-2.5.5-6.1 1.5-9.1 2.1-1 .2-1.9.3-2.7.4.8-.3 1.6-.5 2.2-.7zm-6.6 1.9c.8-.2 1.6-.4 2.3-.6l.1.2c-2.6.7-3.5.9-3.8.8.4-.2.9-.3 1.4-.4zm-18.2 3.3c1.7-.3 3.5-.5 5.3-.8.9-.1 1.8-.3 2.7-.4.9-.2 1.8-.4 2.7-.5 1-.3 2.2-.5 3.5-.8.4-.1.9-.1 1.3-.2-.5.6-1.1 1.2-8.1 2.7 1.1-1.4-6.2.4-8.3.1.2-.1.5-.1.9-.1zm-8.2.6h1.4c-1.8.4-3.7.7-6.4.7-.7-.1-1.1-.2-1.3-.3 2.1-.1 4.2-.2 6.3-.4zm-28.2.6c.2-.1.6-.2.9-.3 2.2.1 4.3.2 6.5.3-.1.1-.6.3-2.3.3-2.4.1-3.8.1-4.5 0-.7-.1-.8-.2-.6-.3zm-28.5-4.5h.6c1.2.3 2.4.5 3.7.7l4.8.9c.8.2 1.5.3 2.3.5.7.1 1.5.3 2.2.4 1.6.1 7.4.8 4.8.2 2.3.3 1.4.6 3.8.6h-2.2c2.5.2 4.9.5 7.3.7h-1.5c-1.9 0-3.9-.1-3.9-.1l5.2 1c-3-.2-6.6-.4-10.4-1-1.9-.3-3.9-.5-5.9-.9-2-.4-4-.8-6.1-1.2-.7-.2-1.4-.4-2-.5-.6-.2-1-.3-1.4-.5-.8-.3-1.3-.4-1.5-.6-.5-.2-.2-.3.2-.2zm-12.5-3.5c1.7.5 3.3 1 4.8 1.4.1 0 .3.1.4.1l2.7.6.1.3 1.5.3h-.7c-.8-.1-2.1-.4-3.4-.7-2.7-.7-5.6-1.5-5.5-1.1-2-.9-1.6-1.1.1-.9zm-12.6-5.1c1.8.7 2.8 1.4 3.5 1.7 1.5.6 3 1.2 4.5 1.7 1.2.5 2.4 1 3.6 1.4-6.4-1.8-12.2-4.2-16-6.2 1.4.5 2.7.9 4.4 1.4zm-11-4.2-.5-.1c-.9-.4-1.7-.8-2.3-1.1-.6-.3-1.1-.6-1.4-.8-.7-.4-.9-.6-.9-.6 1.7.9 3.5 1.9 5.1 2.6zm-15.3-8.3c-.8-.4-1.8-.9-3.1-1.6-1-.7-1.5-1.1-1.9-1.4 1.6 1.1 3.3 2.1 5 3zm-81.1-102.1c.2.6.5 1.4.7 2.1h-.1c-.3-.6-.6-1.3-.9-2.2l-.3-2c0 .3.3 1.1.6 2.1zm-2.2-6.3c0 .3.1.6.2 1-.2-.7-.4-1.4-.6-2.2-.3-.8-.5-1.8-.7-2.7.4 1.4.8 2.7 1.1 3.9zm-4.1-18.3-.3-1.4-.3-1.7c-.1-.4-.1-.7-.2-1 .3.9.5 2.4.5 1.7 0 .7.2 1.6.3 2.4zm29.1-135c-.8 1.2-1.5 2.3-2 3.2.4-1-1.7 2.3-2.5 3.4-.9 2.1-2.6 4.8-4.3 7.6-1.6 2.9-3.3 5.9-4.4 8.6v-.2c-3.8 7.8-7.2 16.3-10 25.1s-4.8 17.9-6.2 26.9c-1.6 10.1-3 21.6-2.5 32.9.1 2.1.2.4.3 2.1.1 2.9-.2 0-.2 1.1.3 2.8.4 6 .7 9.4.1 1.7.3 3.5.4 5.2.1.8.2 1.6.3 2.5.1.6.1 1.1.2 1.5-.1-.3-.1-.5-.2-.8-.2-1.1-.4-2.3-.7-3.4-.2-1.1-.3-2.2-.5-3.2-.4-2.1-.7-4-1.2-5.7 0-1.6-.1-3.8-.3-6.4-.2-2.6-.2-5.5-.3-8.7-.2-6.3.2-13.3 1-19.3.3-.9.9-4.5 1.4-7 .5-2.3.7-3.6.6-1.1.1-1.1.3-3 .6-4.6.3-2.3.6-4.1.1-2.9 0 1-.4 2.1-.8 4.3l-.3-2c.7-2.8 1.1-5.9 1.8-8.9.6-3 1.2-6 2.2-8.6.3-.4.2 0 0 .9-.2.8-.5 2-.7 3.2-.5 2.3-.9 4.4-.1 2.7.1-1.4.4-3.7 1.1-6.6.7-2.8 1.5-6.2 2.6-9.6.6-1.7 1.1-3.4 1.7-5 .6-1.6 1.2-3.2 1.8-4.6.6-1.4 1.2-2.8 1.7-4 .6-1.2 1.1-2.1 1.5-2.9 1-2.1 1.8-3.2 2.4-4 .6-.8 1.1-1.2 1.6-2.1l3.6-7c.7-.7 1-.6 2.1-1.7 2.1-3.2 3.1-5.6 4.4-7.7 4.2-5.9 4.3-5.2 3.1-2.6zm71.6-59.8c.9-.5 1.8-1.1 2.4-1.2-.6.3-1.5.7-2.4 1.2zm40-17c.8-.2 1.5-.3 2.1-.4.6-.1 1-.1 1.4-.2.7-.1 1.1 0 1.2 0 .1 0 .1.1.1.1-5.4 1.5-12.9 3.2-19.1 5.6l.4-.3c-1.4.4-2.4.9-3.4 1.2-1 .3-1.9.6-2.8.9-.9.2-1.9.5-3.1.9-1.2.4-2.5.9-4.2 1.5 0 .2-2.6 1.1-1.5 1-1.1.6-2.2.9-3.4 1.3-1.2.4-2.5.9-4.1 1.7-.2 0 .1.2-.6.4-4.2 2.1-3.8 1.9-3.7 1.7.1-.2-.1-.3-5.4 2.3l-2.7 1.4-2.6 1.6c-1.8 1.1-3.5 2.1-5.3 3.2l-5.1 3.5-2.6 1.7-2.5 1.8c-1.6 1.3-3.3 2.5-4.9 3.7-1.6 1.3-3.1 2.6-4.7 3.9-3.2 2.4-6 5.2-9 7.8.7-.6 1.2-.8 0 .3-1.5.6-3.7 3.8-5.8 5.6.1-.2 1-1.2 1.5-1.7-1.3 1.2-2.6 2.4-3.7 3.6-1.1 1.3-2.2 2.5-3.3 3.7-1.1 1.3-2.2 2.4-3.2 3.7-.9 1.2-1.9 2.3-3 3.5-.8 1.1-1.6 2.1-2.4 3.2-1 1.4-2.1 2.9-3.2 4.3l-1.8 2.4c0-.1 0-.2-.1-.1 1-1.4 2.2-2.7 3.2-4.2 1.1-1.4 2.1-2.9 3.2-4.3s2.2-2.8 3.3-4.1c1.1-1.3 2.1-2.6 3.3-3.6-3.1 2.9.3-1.2-.9-.6l-.8.8c-.5.5-1.1 1.2-1.7 1.9l-2.4 2.8c.9-1.2 1.9-2.5 2.9-3.8 1-1.4 2.2-2.7 3.4-4.1 1.2-1.3 2.3-2.7 3.5-3.9 1.2-1.2 2.3-2.3 3.4-3.2-.2.7-.3 1 1.9-.8-1.6 1.2.1-.7 1.4-2.3.7-.7 1.2-1.4 1.2-1.5 0-.1-.7.2-2.3 1.6-1.1 1.2-2.1 2.3-3.2 3.5-1.1 1.2-2.4 2.4-3.8 3.9-1.2.7-.7-.1.3-1.5 1.1-1.4 2.8-3.2 3.9-4.7.8-.8 1.7-1.9 2.8-3 1.1-1.1 2.4-2.3 3.7-3.6 1.3-1.2 2.6-2.6 3.9-3.7 1.3-1.2 2.6-2.3 3.8-3.4 3.1-2.4 4.6-2.3 9.6-6.6-3.6 2.2-2.2.8.3-1.5 2.6-2.1 6.4-5 7.1-5.9 5.7-3.1 8.7-6 13.6-7.8-.6.4-1.5.9-2.7 1.6-.6.3-1.2.7-1.9 1.1-.7.4-1.3.8-2 1.2-2.6 1.7-5.3 3.4-6.2 4.3 0 .7 2.6 0-5.4 5.6 4.9-3.1 6.3-4.2 7-4.8.7-.6.7-.9 3-2.4l-3.4 2.1c1.5-1.1-1.7.3 1.3-1.5 1.5-.8 2.8-1.6 4.1-2.3.6-.3 1.2-.7 1.8-1 .6-.3 1.1-.5 1.6-.8 2.1-1 3.8-1.8 5.4-2.5 1.6-.7 3.1-1.2 4.8-1.8 1.6-.6 3.4-1.2 5.6-2-1 .3-.6-.2.3-.7.9-.5 2.4-1.2 3.4-1.7 8.4-2.9.3 1.1 5.7-.1 2.7-1.5 8.5-3.3 6.4-3 1.7-.6 2.1-.6 2.4-.7.3 0 .5 0 1.7-.2 1-.5 2.1-1.1 3.6-1.6.7-.3 1.5-.6 2.5-.9.9-.3 2-.5 3.2-.8-.2.2-.4.4-1.2.7-.8.3-2.1.6-4.3 1.3 2.5-.7 4.3-.8 5.2-.7.9.1.9.4-.2.9 0 0-.5.1-1.3.3-.8.1-1.8.4-2.8.7-2 .5-4.1 1-4.1 1-1.8.8.1.3 2.5-.3 1.2-.3 2.4-.7 3.4-.9s1.7-.3 1.6-.1c-1.8.5-3.4.9-4.8 1.3s-2.7.7-3.8 1.1c1.2-.1 3.5-.7 6.1-1.5 2.5-.8 5.3-1.6 7.4-2.1z" class="st0"/><path d="M380.5 63.364c.8.2 1.3.4 1.3.4-.5-.2-.9-.3-1.3-.4zM468.9 124.164c.4.5.7.8.7.8-.8-1-1.6-1.9-2.4-2.8.1.1.1.2.2.2.5.7 1.1 1.3 1.5 1.8zM500.9 190.064c.1.4.2.8.3 1.1-.1-.4-.2-.7-.3-1.1zM379.5 61.364c-.8-.3-1.6-.6-2.5-.8.8.3 1.7.6 2.5.8zM226.2 78.064c-1.2.6-2.1 1.2-2.8 1.7l2.8-1.7zM436.2 381.864c1.2-.8 1.7-1.3 2.1-1.8-.9.7-1.4 1-1.5 1.1.2-.2 1.2-.9-.6.7zM436.7 381.164c-.1.1-.1.1 0 0zM260.7 412.764c.2.1.6.1 1.1.3l-1.1-.3zM248.2 407.864c.2 0 .3.1.4.1-.2-.1-.3-.1-.4-.1zM152.3 168.364c0-.1 0-.3.4-1.2-.3.5-.4 1.1-.9 2.3.1-.4.3-.7.5-1.1zM294.2 420.964c-.2-.1-.7-.1-1.7-.2.7.1 1.2.2 1.7.2zM435.4 100.464s.1 0 0 0zM286.2 62.064c-.2.1-.4.1-.7.2.1 0 .3-.1.7-.2zM219.3 88.964c.1 0 .1-.1.3-.1-.1 0-.2 0-.3.1zM174.4 126.464c.1-.1.2-.2.2-.3.3-.3.5-.7.8-1-.4.5-.6.8-1 1.3zM233.5 80.364c-.3.2-.6.3-.9.5.5-.2 1.5-.8 2.7-1.4-.7.3-1.3.6-1.8.9zM419.6 394.364c-.2.1-.3.3-.5.4.2-.2.4-.4.5-.4zM322.2 423.164c-1.2 0-2.4 0-3.1.1.9 0 1.9 0 3.1-.1zM358.2 418.564c.6-.1 1.2-.3 1.9-.6-.9.3-1.5.5-1.9.6zM404.6 402.164l-.6.6c.2-.3.4-.5.6-.6zM427.5 388.264c.4-.3.9-.7 1.2-1 .1 0-.4.4-1.2 1zM357.6 418.964c-.1 0-.1 0 0 0 0 0 .1.1.2.1.3-.1.3-.2-.2-.1zM358.2 418.564c-.3.1-.6.1-.9.1-.9.1-1.8.2-2.9.5-.7.1 1.1-.4-.7-.1-1.5.4 1 .3 3.8-.2-.1 0 .1-.1.7-.3zM362.6 417.264c-.7.1-1.6.5-2.5.7.2 0 1.2-.1 1.3-.2.4-.2.3-.2 1.2-.5zM348.7 419.964c-2.5.4-6.7 1.1-7 1.3l7-1.3zM323.1 422.064c.5-.1 1.2-.2 1-.2-2.2.1-2.6.1-1 .2zM318.9 422.264c.7.1 1.5.2 2.9.2.4-.3-2.2-.2-2.9-.2zM318.9 422.264h-.2.2zM279.8 417.864c.8.1 1.5.2 2 .3.7-.1-2-.3-3.4-.6.4 0 .9.2 1.4.3zM278.4 417.464c-.2-.1-.4-.1-.5-.2.1.1.3.2.5.2zM262.1 413.164c.7.2.9.3 1.5.5l-.5-.4c-.9-.2-2-.5-1-.1zM170 136.764l1.1-1.6-1.1 1.3zM298.4 60.764c-.4 0 .2-.4-1.8 0 2.4-.3-.1.2 1.8 0zM376.7 68.164l-.3-.5-.3.3z" class="st0"/></g><g class="containerBody"><g fill="#ffdb79" class="sampleTexts_1"><path d="M187.33 231.026v14.66q.462.083 1.135.15.673.06 1.264.06 1.433 0 2.635-.42 1.197-.421 2.06-1.305.868-.884 1.35-2.296.484-1.413.484-3.39 0-3.791-1.767-5.707-1.773-1.916-4.721-1.916-.586 0-1.197.041-.611.041-1.243.123Zm2.358 20.809q-.714 0-1.644-.041-.925-.041-1.916-.17-.991-.123-1.978-.313-.991-.19-1.833-.53-2.317-.883-2.317-3.07v-19.674q0-.884.483-1.367.488-.488 1.33-.78 1.808-.591 3.832-.781 2.019-.19 3.622-.19 3.287 0 5.958.801 2.676.801 4.592 2.466 1.916 1.664 2.97 4.191 1.052 2.527 1.052 5.98 0 3.369-1.012 5.876-1.006 2.506-2.881 4.212-1.875 1.705-4.49 2.547-2.61.843-5.768.843Zm29.156 0q-2.487 0-4.613-.694-2.127-.693-3.709-2.085-1.577-1.392-2.48-3.498-.91-2.106-.91-4.926 0-2.78.91-4.782.903-1.999 2.377-3.283 1.475-1.284 3.37-1.895t3.873-.611q2.235 0 4.068.672 1.829.673 3.16 1.855 1.325 1.176 2.064 2.82.735 1.644.735 3.58 0 1.433-.801 2.193-.802.756-2.23.966l-10.407 1.562q.463 1.387 1.896 2.08 1.433.699 3.287.699 1.726 0 3.262-.442 1.541-.442 2.507-1.033.673.422 1.14 1.177.462.76.462 1.602 0 1.896-1.772 2.82-1.346.72-3.03.971-1.685.252-3.16.252Zm-1.182-16.55q-1.007 0-1.746.333-.735.34-1.202.863-.463.53-.694 1.182-.231.652-.272 1.325l7.202-1.176q-.129-.843-.925-1.685-.801-.842-2.363-.842Zm31.262 9.77q0 3.2-2.399 5.013-2.399 1.808-7.078 1.808-1.767 0-3.283-.252-1.515-.251-2.589-.775-1.078-.53-1.69-1.33-.606-.802-.606-1.896 0-1.012.422-1.706.42-.693 1.006-1.155 1.223.673 2.805 1.197 1.577.529 3.642.529 1.305 0 1.998-.38.699-.38.699-1.012 0-.591-.509-.925-.503-.339-1.685-.55l-1.263-.251q-3.663-.714-5.455-2.255-1.788-1.536-1.788-4.402 0-1.557.673-2.82.673-1.264 1.895-2.107 1.223-.842 2.928-1.304 1.706-.463 3.77-.463 1.557 0 2.928.232 1.367.23 2.379.693 1.012.462 1.602 1.202.591.735.591 1.747 0 .97-.36 1.664-.36.693-.904 1.156-.339-.211-1.011-.442-.673-.231-1.475-.421-.801-.19-1.623-.314-.822-.128-1.495-.128-1.392 0-2.147.318-.76.314-.76.987 0 .467.421.76t1.603.55l1.305.292q4.042.925 5.747 2.548 1.706 1.623 1.706 4.192Zm3.801-20.049q0-1.603 1.074-2.697 1.073-1.094 2.845-1.094 1.767 0 2.84 1.094 1.074 1.094 1.074 2.697 0 1.598-1.073 2.697-1.074 1.094-2.84 1.094-1.773 0-2.846-1.094-1.074-1.1-1.074-2.697Zm7.5 8.969v17.146q-.468.082-1.372.231-.904.149-1.834.149-.924 0-1.664-.128-.735-.129-1.238-.504-.508-.38-.78-1.032-.273-.653-.273-1.706v-17.146q.462-.082 1.366-.231.904-.149 1.834-.149.925 0 1.664.128.735.129 1.244.504.503.38.775 1.032.278.653.278 1.706Zm15.045-3.914q2.399 0 4.356.61 1.962.612 3.308 1.578.842.59 1.325 1.304.488.72.488 1.855v14.742q0 2.235-.842 3.858-.843 1.618-2.296 2.691-1.454 1.074-3.416 1.582-1.957.504-4.187.504-3.837 0-6.025-1.033-2.188-1.032-2.188-3.349 0-.965.395-1.705.4-.735.91-1.115 1.222.673 2.758 1.135 1.536.468 3.18.468 2.275 0 3.62-.76 1.352-.76 1.352-2.445v-.673q-1.731.76-4.212.76-1.896 0-3.606-.57-1.706-.57-2.99-1.767-1.284-1.202-2.065-3.098-.775-1.895-.775-4.505 0-2.573.821-4.468.822-1.896 2.27-3.139 1.455-1.238 3.458-1.85 1.998-.61 4.36-.61Zm2.61 13.858v-7.75q-.294-.17-.864-.34-.57-.17-1.412-.17-2.065 0-3.098 1.161-1.027 1.156-1.027 3.308 0 2.44 1.027 3.514 1.033 1.073 2.635 1.073 1.726 0 2.738-.796Zm24.773 4.212v-9.944q0-1.305-.734-1.916-.74-.611-2.003-.611-.843 0-1.665.21-.822.21-1.407.632v14.619q-.421.123-1.33.252-.905.128-1.875.128-.925 0-1.665-.128-.734-.129-1.238-.504-.508-.38-.78-1.032-.273-.653-.273-1.706v-12.636q0-1.14.483-1.854.483-.72 1.325-1.305 1.434-1.012 3.601-1.644 2.173-.631 4.824-.631 4.761 0 7.33 2.085 2.568 2.086 2.568 5.79v13.185q-.421.123-1.325.252-.904.128-1.875.128-.925 0-1.664-.128-.735-.129-1.244-.504-.503-.38-.78-1.032-.273-.653-.273-1.706Zm26.721-16.596h-6.318q-.292-.463-.544-1.264-.257-.801-.257-1.685 0-1.643.74-2.357.734-.72 1.916-.72h18.363q.298.463.55 1.264.252.801.252 1.685 0 1.644-.74 2.358-.735.719-1.916.719h-4.674v19.457q-.463.129-1.454.252-.986.129-1.957.129-.971 0-1.706-.15-.74-.143-1.243-.523-.503-.38-.76-1.053-.252-.673-.252-1.772v-16.34Zm39.435 9.39q0 2.614-.802 4.653-.801 2.045-2.255 3.437-1.448 1.387-3.472 2.106-2.024.714-4.505.714-2.486 0-4.51-.755-2.019-.76-3.472-2.173-1.454-1.407-2.255-3.431-.802-2.024-.802-4.551 0-2.481.802-4.505.801-2.024 2.255-3.432 1.453-1.412 3.472-2.172 2.024-.755 4.51-.755 2.481 0 4.505.775 2.024.781 3.472 2.194 1.454 1.412 2.255 3.43.802 2.025.802 4.465Zm-14.743 0q0 2.573.992 3.94.986 1.37 2.758 1.37 1.767 0 2.717-1.391.946-1.392.946-3.92 0-2.527-.966-3.893-.97-1.371-2.738-1.371-1.772 0-2.738 1.371-.97 1.366-.97 3.894Zm39.938 0q0 2.614-.801 4.653-.796 2.045-2.25 3.437-1.454 1.387-3.478 2.106-2.018.714-4.505.714-2.486 0-4.51-.755-2.018-.76-3.472-2.173-1.454-1.407-2.255-3.431-.801-2.024-.801-4.551 0-2.481.801-4.505t2.255-3.432q1.454-1.412 3.472-2.172 2.024-.755 4.51-.755 2.487 0 4.505.775 2.024.781 3.478 2.194 1.454 1.412 2.25 3.43.801 2.025.801 4.465Zm-14.742 0q0 2.573.991 3.94.992 1.37 2.759 1.37t2.717-1.391q.945-1.392.945-3.92 0-2.527-.966-3.893-.97-1.371-2.738-1.371-1.772 0-2.737 1.371-.971 1.366-.971 3.894ZM405.3 226.69v24.43q-.463.082-1.367.231-.904.149-1.834.149-.924 0-1.664-.128-.734-.129-1.243-.504-.503-.38-.776-1.032-.277-.653-.277-1.706v-24.43q.467-.087 1.372-.23.904-.15 1.833-.15.925 0 1.66.124.74.128 1.243.508.508.38.78 1.033.273.652.273 1.705Zm18.291 14.023 6.74 6.74q-.211 1.982-1.161 3.035-.945 1.053-2.759 1.053-1.346 0-2.399-.652-1.053-.653-2.275-2.214l-4.171-5.224v7.669q-.462.082-1.366.231-.91.149-1.834.149-.925 0-1.664-.128-.735-.129-1.244-.504-.503-.38-.78-1.032-.273-.653-.273-1.706v-24.389q.463-.128 1.372-.272.904-.149 1.829-.149.93 0 1.664.124.74.128 1.243.508.508.38.78 1.033.273.652.273 1.705v11.12l7.248-7.417q2.188 0 3.513.971 1.33.971 1.33 2.445 0 .632-.21 1.156-.21.53-.657 1.074-.442.55-1.136 1.16-.693.612-1.623 1.408l-2.44 2.106Zm10.453-15.708q0-1.603 1.074-2.697t2.846-1.094q1.767 0 2.84 1.094 1.074 1.094 1.074 2.697 0 1.598-1.074 2.697-1.073 1.094-2.84 1.094-1.772 0-2.846-1.094-1.074-1.1-1.074-2.697Zm7.5 8.969v17.146q-.468.082-1.372.231-.904.149-1.833.149-.925 0-1.665-.128-.734-.129-1.238-.504-.508-.38-.78-1.032-.273-.653-.273-1.706v-17.146q.463-.082 1.367-.231.904-.149 1.834-.149.924 0 1.664.128.734.129 1.243.504.503.38.776 1.032.277.653.277 1.706Zm12.22 3.79v6.365q0 1.094.694 1.556.698.463 1.962.463.632 0 1.304-.103.673-.108 1.182-.277.375.467.652 1.032.272.57.272 1.371 0 1.598-1.201 2.61-1.197 1.012-4.233 1.012-3.704 0-5.707-1.685-1.998-1.685-1.998-5.476v-18.03q.462-.123 1.325-.272.863-.149 1.834-.149 1.85 0 2.882.653 1.032.657 1.032 2.763v2.692h5.517q.257.467.488 1.16.231.694.231 1.537 0 1.474-.652 2.126-.653.653-1.752.653h-3.832Z" class="logo--name svgLogoName_1 logoNameBox"/></g></g></g></svg>